<?xml version="1.0" standalone="no"?><!DOCTYPE svg PUBLIC "-//W3C//DTD SVG 1.1//EN" "http://www.w3.org/Graphics/SVG/1.1/DTD/svg11.dtd"><svg t="1570863797296" class="icon" viewBox="0 0 1024 1024" version="1.1" xmlns="http://www.w3.org/2000/svg" p-id="3317" xmlns:xlink="http://www.w3.org/1999/xlink" width="32" height="32"><defs><style type="text/css"></style></defs><path d="M956.12103 725.231429c0-102.477976-0.001023-426.826132-0.001023-529.062608 0-28.503171-11.620665-39.458687-39.529295-39.458687-150.720723 0-662.533458 0-813.125245 0-29.187763 0-39.455617 13.250792-39.455617 38.771025 0 101.694123 0 427.042049 0 529.750269 0 28.107151 10.956539 39.629579 39.455617 39.629579 105.688087 0 387.206786-0.478907 387.206786-0.478907l0 142.221142-90.50427 0 0 38.787398 219.795938 0 0-38.787398-90.50427 0L529.45965 764.382101c0 0 278.345426 0.528026 387.818723 0.528026C944.270121 764.909104 956.12103 752.648872 956.12103 725.231429zM102.797247 195.499579l814.536384 0 0 530.095124L102.797247 725.594703 102.797247 195.499579z" p-id="3318"></path></svg>