<?xml version="1.0" standalone="no"?><!DOCTYPE svg PUBLIC "-//W3C//DTD SVG 1.1//EN" "http://www.w3.org/Graphics/SVG/1.1/DTD/svg11.dtd"><svg t="1570863753812" class="icon" viewBox="0 0 1024 1024" version="1.1" xmlns="http://www.w3.org/2000/svg" p-id="2143" xmlns:xlink="http://www.w3.org/1999/xlink" width="32" height="32"><defs><style type="text/css"></style></defs><path d="M895 701.3H615c-11 0-20-9-20-20s9-20 20-20h280c11 0 20 9 20 20s-9 20-20 20zM895 804.7H615c-11 0-20-9-20-20s9-20 20-20h280c11 0 20 9 20 20s-9 20-20 20zM895 908.1H615c-11 0-20-9-20-20s9-20 20-20h280c11 0 20 9 20 20 0 11.1-9 20-20 20z" fill="#1296db" p-id="2144"></path><path d="M504.1 498.8c-60.5 0-117.4-23.6-160.2-66.4s-66.4-99.7-66.4-160.2 23.6-117.4 66.4-160.2 99.7-66.4 160.2-66.4S621.5 69.2 664.3 112c42.8 42.8 66.4 99.7 66.4 160.2s-23.6 117.4-66.4 160.2c-42.8 42.8-99.7 66.4-160.2 66.4z m0-413.2c-102.9 0-186.6 83.7-186.6 186.6 0 102.9 83.7 186.6 186.6 186.6 102.9 0 186.6-83.7 186.6-186.6 0-102.9-83.7-186.6-186.6-186.6z" fill="#1296db" p-id="2145"></path><path d="M517.9 909.1H70.8l0.1-20.1c0.4-58.1 12.2-114.5 34.9-167.5 22-51.2 53.3-97.2 93-136.6 39.7-39.5 85.9-70.4 137.3-92.1C389.3 470.4 445.8 459 504 459c108.1 0 211.7 40.1 291.5 112.8 8.2 7.4 8.8 20.1 1.3 28.3-7.4 8.2-20.1 8.8-28.3 1.3-72.3-66-166.3-102.4-264.4-102.4-208.5 0-380.5 164.2-392.5 370.1h406.3c11 0 20 9 20 20s-9 20-20 20z" fill="#1296db" p-id="2146"></path></svg>