<?xml version="1.0" standalone="no"?><!DOCTYPE svg PUBLIC "-//W3C//DTD SVG 1.1//EN" "http://www.w3.org/Graphics/SVG/1.1/DTD/svg11.dtd"><svg t="1570863774617" class="icon" viewBox="0 0 1024 1024" version="1.1" xmlns="http://www.w3.org/2000/svg" p-id="2454" xmlns:xlink="http://www.w3.org/1999/xlink" width="32" height="32"><defs><style type="text/css"></style></defs><path d="M388.288 413.68a367.488 367.488 0 0 0 129.712 20.928 24 24 0 0 0 0-48 319.632 319.632 0 0 1-112.72-17.824c-5.376-2.048-7.712-5.168-7.712-6.304V320.16a379.6 379.6 0 0 0 120.432 17.6 358.304 358.304 0 0 0 115.616-16.912v42.224a24 24 0 0 0 48 0v-87.824a24.608 24.608 0 0 0-0.4-4.08c0.16-1.6 0.4-3.2 0.4-4.896v-87.808a24.144 24.144 0 0 0-0.624-5.312 49.888 49.888 0 0 0 0.624-6.4c0-54.88-86.064-79.856-166.032-79.856s-166.016 24.976-166.016 79.856a49.712 49.712 0 0 0 0.64 6.4 24.144 24.144 0 0 0-0.64 5.312v87.152a47.904 47.904 0 0 0 0.448 5.232 24.864 24.864 0 0 0-0.448 4.4v87.168a56.256 56.256 0 0 0 38.72 51.264z m238.16-141.232a294.896 294.896 0 0 1-108.448 17.376 319.056 319.056 0 0 1-112.72-17.856c-5.376-2.032-7.712-5.152-7.712-6.288v-40.688a332.096 332.096 0 0 0 236.048 0v41.296c0 1.184-2.112 4.16-7.168 6.16z m-110.864-137.504c75.072 0 114.864 22.8 117.968 31.856-3.088 9.072-42.88 31.872-117.968 31.872-75.888 0-115.712-23.296-118.048-31.568 2.352-8.864 42.192-32.16 118.064-32.16z" fill="#13227a" p-id="2455"></path><path d="M200.896 666.592a24 24 0 0 0 33.424-5.904l144-205.68a24 24 0 0 0-39.312-27.536l-144 205.696a24 24 0 0 0 5.888 33.424z" fill="#13227a" p-id="2456"></path><path d="M958.448 669.248c0-16.752-9.248-47.712-71.248-66.88a24 24 0 1 0-14.192 45.84c28.8 8.912 36.8 19.072 37.472 20.8-2.32 8.864-42.16 32.16-118.048 32.16s-115.712-23.296-118.048-31.6c0.656-2.448 10.656-14.32 44.8-23.392a24 24 0 0 0-12.32-46.4c-51.872 13.776-80.448 38.4-80.448 69.52a49.328 49.328 0 0 0 0.64 6.4 24.272 24.272 0 0 0-0.64 5.312v87.68a45.568 45.568 0 0 0 0.416 4.912 24.528 24.528 0 0 0-0.416 4.08v87.808a56 56 0 0 0 37.472 50.736 342.288 342.288 0 0 0 126.144 20.8 367.024 367.024 0 0 0 129.712-20.96 56.176 56.176 0 0 0 38.704-51.2v-87.152a23.584 23.584 0 0 0-0.448-4.416 47.328 47.328 0 0 0 0.448-5.232v-87.152a23.2 23.2 0 0 0-0.64-5.312 49.168 49.168 0 0 0 0.64-6.352zM792.4 749.12a297.824 297.824 0 0 0 118.016-21.696v40.688c0 1.152-2.32 4.272-7.68 6.304a319.424 319.424 0 0 1-112.736 17.84 294.992 294.992 0 0 1-108.464-17.376c-5.056-2-7.152-4.96-7.152-6.112v-41.344a297.808 297.808 0 0 0 118.016 21.696z m110.4 122.096a319.792 319.792 0 0 1-112.736 17.84A294.992 294.992 0 0 1 681.6 871.68c-5.056-2-7.152-4.976-7.152-6.112V823.36a358.832 358.832 0 0 0 115.616 16.896 379.632 379.632 0 0 0 120.416-17.6v42.304c-0.032 1.088-2.352 4.224-7.68 6.256z" fill="#13227a" p-id="2457"></path><path d="M651.6 421.584a24 24 0 0 0-5.888 33.424l144 205.68a24 24 0 1 0 39.312-27.52l-144-205.696a24 24 0 0 0-33.424-5.888z" fill="#13227a" p-id="2458"></path><path d="M581.2 769.616l-183.696-1.76v0.912c0 1.6-0.24 3.28-0.4 4.912a24.352 24.352 0 0 1 0.4 4.08v38.112l183.232 1.744h0.224a24 24 0 0 0 0.24-48z" fill="#13227a" p-id="2459"></path><path d="M397.2 773.68c0.16-1.6 0.4-3.2 0.4-4.912V680.96a24.16 24.16 0 0 0-0.624-5.312 49.344 49.344 0 0 0 0.624-6.4c0-31.056-28.576-55.744-80.448-69.52a24 24 0 1 0-12.304 46.4c34.128 9.072 44.128 20.944 44.8 22.832-2.32 8.864-42.144 32.16-118.048 32.16s-115.712-23.296-118.048-31.584c0.608-2.256 8.688-12.416 37.472-21.328a24 24 0 1 0-14.176-45.84c-62 19.2-71.264 50.128-71.264 66.88a49.328 49.328 0 0 0 0.64 6.4 24.272 24.272 0 0 0-0.64 5.312v87.152a46.976 46.976 0 0 0 0.448 5.232 24.976 24.976 0 0 0-0.448 4.416v87.152a56.24 56.24 0 0 0 38.704 51.2 367.376 367.376 0 0 0 129.712 20.944 342.4 342.4 0 0 0 126.144-20.8 56 56 0 0 0 37.456-50.736v-87.808a24.352 24.352 0 0 0-0.4-4.032zM231.584 749.12a297.76 297.76 0 0 0 118.016-21.696v41.264c0 1.152-2.08 4.112-7.152 6.112a294.896 294.896 0 0 1-108.448 17.456 319.12 319.12 0 0 1-112.736-17.84c-5.36-2.032-7.696-5.152-7.696-6.304v-40.688a297.872 297.872 0 0 0 117.984 21.696z m110.864 122.56a294.896 294.896 0 0 1-108.448 17.376 319.488 319.488 0 0 1-112.736-17.84c-5.36-2.032-7.696-5.168-7.696-6.304v-42.304a379.568 379.568 0 0 0 120.432 17.6 358.72 358.72 0 0 0 115.6-16.896v42.208c-0.032 1.184-2.112 4.16-7.184 6.16z" fill="#13227a" p-id="2460"></path><path d="M594.368 380.304a20.032 20.032 0 0 0-4.48 1.44 21.648 21.648 0 0 0-4.16 2.224 22.016 22.016 0 0 0-3.68 3.056 23.664 23.664 0 0 0-7.04 16.944 24.272 24.272 0 0 0 7.04 16.976 22.672 22.672 0 0 0 7.84 5.104 22.208 22.208 0 0 0 9.12 1.92 24 24 0 0 0 16.96-7.024 26.752 26.752 0 0 0 5.28-7.84 25.008 25.008 0 0 0 1.76-9.136 23.664 23.664 0 0 0-7.04-16.944 24.576 24.576 0 0 0-21.6-6.72z" fill="#13227a" p-id="2461"></path></svg>