<?xml version="1.0" standalone="no"?><!DOCTYPE svg PUBLIC "-//W3C//DTD SVG 1.1//EN" "http://www.w3.org/Graphics/SVG/1.1/DTD/svg11.dtd"><svg t="1570863462567" class="icon" viewBox="0 0 1024 1024" version="1.1" xmlns="http://www.w3.org/2000/svg" p-id="1181" xmlns:xlink="http://www.w3.org/1999/xlink" width="32" height="32"><defs><style type="text/css"></style></defs><path d="M457.3 543.8L190.2 418.4c-14.3-8.1-31.8-8.1-46.1 0-15.5 9.1-25 25.7-25.1 43.7v320c-0.2 19.1 10.3 36.8 27.3 45.6l267.6 125.6c6.7 3.6 14.2 5.4 21.8 5.5 8.4-0.3 16.6-2.8 23.8-7.2 15.3-9.3 24.7-25.8 24.9-43.7V587.5c-0.7-18.4-11-35-27.1-43.7zM856.7 335.7c11.1-24.9-0.1-54.1-25-65.2L550.1 137.3a89.43 89.43 0 0 0-76 0L192.6 270.5c-11.2 5-20.1 13.9-25 25-11.1 24.9 0.1 54.1 25 65.2l296.2 139.4c7.2 3.8 15.2 5.9 23.4 6.1 8.1-0.3 16.1-2.4 23.4-6.1l296.2-139.4c11-4.9 19.9-13.9 24.9-25zM905.3 782.1V462.3c-0.1-18-9.7-34.5-25.1-43.7-13.9-8.2-31-8.6-45.2-1.1L566.1 543.8c-15.9 8.9-25.8 25.5-26.2 43.7v321.3c0.2 17.9 9.6 34.4 24.9 43.7 7.3 4.1 15.5 6.3 23.8 6.3 7.6 0 15.1-1.8 21.8-5.5l268.7-125.6c16.5-9.1 26.6-26.7 26.2-45.6z m-198.7 22L694.1 823l-23.5-11.2-23.6 35.6-12.5-6 23.5-35.5-23.5-11.2 12.5-18.9 23.5 11.2 23.5-35.5 12.5 6L683 793l23.6 11.1z m0-168.1l-33.2 17.2v33.1l-17.7 9.2v-33.1l-33.2 17.2V662l33.2-17.2v-33.1l17.7-9.2v33.1l33.2-17.2V636z m120.1 115.9L760 787.3v-17.6l66.7-35.5v17.7z m0-41.9L760 745.5v-17.7l66.7-35.5V710z m0-133L760 612.4v-17.6l66.7-35.5V577z" p-id="1182" fill="#d81e06"></path></svg>