<?xml version="1.0" standalone="no"?><!DOCTYPE svg PUBLIC "-//W3C//DTD SVG 1.1//EN" "http://www.w3.org/Graphics/SVG/1.1/DTD/svg11.dtd"><svg t="1570864045114" class="icon" viewBox="0 0 1024 1024" version="1.1" xmlns="http://www.w3.org/2000/svg" p-id="4676" xmlns:xlink="http://www.w3.org/1999/xlink" width="32" height="32"><defs><style type="text/css"></style></defs><path d="M32 511.999c0 0.007 0 0.014 0 0.022 0 265.097 214.903 479.999 479.999 479.999 265.097 0 479.999-214.903 479.999-479.999 0-0.007 0-0.015 0-0.022 0-0.005 0-0.012 0-0.020 0-265.097-214.903-479.999-479.999-479.999-265.097 0-479.999 214.903-479.999 479.999 0 0.007 0 0.015 0 0.022z" fill="#D2966E" p-id="4677"></path><path d="M889.749 484.887c0-33.433-18.996-63.961-48.989-78.732l-35.021-17.246c-8.287-10.475-16.918-16.897-16.918-16.897h-0.007c19.647-18.389 31.929-44.551 31.929-73.584l1.917-24.48c4.147-52.966-37.681-98.39-90.809-98.316-24.382 0.035-48.381 5.132-67.99 17.66 0 0-67.568-5.993-44.67 105.135 0 29.033 12.282 55.195 31.929 73.584h-0.007s-8.631 6.422-16.917 16.897l-35.022 17.246c-29.993 14.771-48.989 45.299-48.989 78.732v62.277h-55.344c-18.891-17.76-41.378-31.944-66.225-41.321 88.5 14.824 103.877-18.94 103.877-56.302v-0.001c30.287-146.98-59.080-139.053-59.080-139.053-21.705-13.867-47.476-20.847-74.207-22.784-4.767-0.365-10.326-0.574-15.932-0.574-70.054-0.098-125.377 59.98-119.891 130.033l2.536 32.377c0 37.313 15.338 71.037 40.045 95.232-5.864 5.309-12.038 11.584-19.035 18.997-1.935 2.049-2.83 4.209-2.813 6.433l-44.309 21.82c-39.669 19.536-64.793 59.913-64.793 104.132v82.369h448.749v-66.851l240.061-0.186 74.903-135.185v-29.136h-48.975v-62.277z" fill="" p-id="4678"></path><path d="M412.365 688.273l427.913-0.33 74.902-135.185v-29.137l-78.996 136.208h-423.82z" fill="#5B2B00" p-id="4679"></path><path d="M915.181 523.622h-502.816v136.208h423.82z" fill="#3D2400" p-id="4680"></path><path d="M575.632 382.613c-29.993 14.771-48.989 45.299-48.989 78.732v62.277h169.781v-200.496l-120.792 59.486z" fill="#5B5B5F" p-id="4681"></path><path d="M866.206 461.345c0-33.433-18.996-63.961-48.989-78.732l-120.793-59.486v200.496h169.781v-62.277z" fill="#434142" p-id="4682"></path><path d="M627.57 348.469s-31.922 23.715-31.922 54.429l24.407 8.532-24.407 11.944s32.106 81.051 100.776 100.248v-18.713l-62.528-156.441h-6.326z" fill="#494949" p-id="4683"></path><path d="M765.278 348.469s31.923 23.715 31.923 54.429l-24.407 8.532 24.407 11.944s-32.106 81.051-100.776 100.248v-18.713l62.528-156.441h6.324z" fill="#333333" p-id="4684"></path><path d="M633.897 354.132s3.242 93.096 62.528 156.478v-141.903l-62.528-14.576z" fill="#FFFFFF" p-id="4685"></path><path d="M758.952 354.132s-3.242 93.096-62.528 156.478v-141.903l62.528-14.576z" fill="#EBEBED" p-id="4686"></path><path d="M666.313 355.825l21.256 43.511-13.953 81.369c6.49 10.283 14.035 20.314 22.808 29.693v-154.574h-30.112z" fill="#5BB3FD" p-id="4687"></path><path d="M726.536 355.825h-30.112v154.573c9.002-9.624 16.709-19.933 23.311-30.497l-14.453-80.571 21.253-43.506z" fill="#47A1E3" p-id="4688"></path><path d="M771.486 503.844l25.288-25.288 25.286 25.288z" fill="#FFFFFF" p-id="4689"></path><path d="M595.648 274.885c0 55.657 45.119 100.776 100.776 100.776v-201.551c-55.657 0-100.776 45.119-100.776 100.776z" fill="#F2DED1" p-id="4690"></path><path d="M696.424 174.109v201.552c55.657 0 100.776-45.119 100.776-100.776s-45.119-100.777-100.776-100.777z" fill="#E6CCBD" p-id="4691"></path><path d="M595.648 274.885c-22.898-111.129 44.669-105.135 44.669-105.135 19.61-12.529 43.608-17.627 67.991-17.66 53.128-0.075 94.957 45.349 90.809 98.316l-1.917 24.48c-3.38 0-6.32-2.257-7.256-5.504-9.384-32.541-45.549-59.852-45.549-59.852-31.059 24.52-122.603 20.706-122.603 20.706-0.858 9.012-12.532 31.523-17.453 40.681-1.298 2.381-3.783 3.97-6.639 3.97-0.001 0-0.001 0-0.002 0h-2.050z" fill="#3B2B15" p-id="4692"></path><path d="M216.264 568.481c-39.669 19.536-64.792 59.913-64.792 104.132v82.369h224.554v-265.178l-159.761 78.678z" fill="#4C4C4C" p-id="4693"></path><path d="M600.218 672.612c0-44.218-25.124-84.596-64.793-104.132l-159.761-78.677v265.178h224.554v-82.369z" fill="#434142" p-id="4694"></path><path d="M487.738 540.227c-35.998-38.138-50.254-46.307-112.176-46.315-61.923 0.008-76.178 8.178-112.177 46.315-17.549 18.592 50.195 46.285 112.177 46.314 61.981-0.030 129.724-27.724 112.176-46.314z" fill="#383838" p-id="4695"></path><path d="M242.376 425.998c0 73.612 59.675 133.287 133.287 133.287v-266.574c-73.612 0-133.287 59.675-133.287 133.287z" fill="#3B2B15" p-id="4696"></path><path d="M375.664 292.711v266.574c73.612 0 133.287-59.675 133.287-133.287s-59.675-133.287-133.287-133.287z" fill="#2F2313" p-id="4697"></path><path d="M449.871 286.946s89.366-7.927 59.080 139.053h-2.711c-0.001 0-0.001 0-0.002 0-3.777 0-7.064-2.101-8.755-5.197-6.535-12.166-21.975-41.938-23.109-53.858 0 0-51.493 2.142-98.711-5.36v-97.421c26.732 1.935 52.503 8.918 74.208 22.784z" fill="#2F2313" p-id="4698"></path><path d="M359.947 263.588c5.261 0.007 10.507 0.196 15.717 0.574v97.421c-25.185-4.002-49.156-10.745-63.445-22.028 0 0-47.833 36.123-60.246 79.162-1.238 4.296-5.126 7.28-9.596 7.28l-2.536-32.378c-5.486-70.052 49.836-130.131 120.105-130.031z" fill="#3B2B15" p-id="4699"></path></svg>